# AST/ASF file generated using VICON BodyLanguage
# -----------------------------------------------
:version 1.10
:name VICON
:units
  mass 1.0
  length 0.45
  angle deg
:documentation
   .ast/.asf automatically generated from VICON data using
   VICON BodyBuilder and BodyLanguage model FoxedUp or BRILLIANT.MOD
:root
   order TX TY TZ RX RY RZ
   axis XYZ
   position 0 0 0  
   orientation 0 0 0 
:bonedata
  begin
     id 1 
     name lhipjoint
     direction 0.561001 -0.76473 0.316963 
     length 2.4722 
     axis 0 0 0  XYZ
  end
  begin
     id 2 
     name lfemur
     direction 0.34202 -0.939693 0  
     length 7.59403  
     axis 0 0 20  XYZ
    dof rx ry rz
    limits (-160.0 20.0)
           (-70.0 70.0)
           (-60.0 70.0)
  end
  begin
     id 3 
     name ltibia
     direction 0.34202 -0.939693 0   
     length 7.89655   
     axis 0 0 20   XYZ
    dof rx
    limits (-10.0 170.0)
  end
  begin
     id 4 
     name lfoot
     direction 0.061296 -0.168409 0.98381   
     length 2.73287   
     axis -90 7.62852e-016 20   XYZ
    dof rx rz
    limits (-45.0 90.0)
           (-70.0 20.0)
  end
  begin
     id 5 
     name ltoes
     direction 1.53547e-011 -4.21984e-011 1   
     length 1.37057   
     axis -90 7.62852e-016 20   XYZ
    dof rx
    limits (-90.0 20.0)
  end
  begin
     id 6 
     name rhipjoint
     direction -0.559611 -0.765599 0.317323   
     length 2.46939  
     axis 0 0 0  XYZ 
  end
  begin
     id 7 
     name rfemur
     direction -0.34202 -0.939693 0   
     length 7.53712   
     axis 0 0 -20   XYZ
    dof rx ry rz
    limits (-160.0 20.0)
           (-70.0 70.0)
           (-70.0 60.0)
  end
  begin
     id 8 
     name rtibia
     direction -0.34202 -0.939693 0   
     length 8.12549   
     axis 0 0 -20   XYZ
    dof rx
    limits (-10.0 170.0)
 end
 begin
     id 9 
     name rfoot
     direction -0.066984 -0.184037 0.980634   
     length 2.67541  
     axis -90 -7.62852e-016 -20   XYZ
    dof rx rz
    limits (-45.0 90.0)
           (-20.0 70.0)
  end
  begin
     id 10 
     name rtoes
     direction -1.53549e-011 -4.21786e-011 1   
     length 1.34085   
     axis -90 -7.62852e-016 -20   XYZ
    dof rx
    limits (-90.0 20.0)
  end
  begin
     id 11 
     name lowerback
     direction -0.0522728 0.992594 -0.109658   
     length 2.05633   
     axis 0 0 0   XYZ
    dof rx ry rz
    limits (-20.0 45.0)
           (-30.0 30.0)
           (-30.0 30.0)
  end
  begin
     id 12 
     name upperback
     direction 0.00589338 0.999977 0.00335704   
     length 2.05845   
     axis 0 0 0   XYZ
    dof rx ry rz
    limits (-20.0 45.0)
           (-30.0 30.0)
           (-30.0 30.0)
  end
  begin
     id 13 
     name thorax
     direction 0.0292928 0.998059 0.0549487   
     length 2.09281   
     axis 0 0 0   XYZ
    dof rx ry rz
    limits (-20.0 45.0)
           (-30.0 30.0)
           (-30.0 30.0)
  end
  begin
     id 14 
     name lowerneck
     direction 0.0356368 0.980775 0.191858   
     length 1.84767   
     axis 0 0 0   XYZ
    dof rx ry rz
    limits (-20.0 45.0)
           (-30.0 30.0)
           (-30.0 30.0)
  end
  begin
     id 15 
     name upperneck
     direction -0.0227605 0.98931 -0.14404   
     length 1.89582   
     axis 0 0 0   XYZ
    dof rx ry rz
    limits (-20.0 45.0)
           (-30.0 30.0)
           (-30.0 30.0)
  end
  begin
     id 16
     name head
     direction -0.00932985 0.997511 -0.0698904  
     length 1.90213  
     axis 0 0 0   XYZ
    dof rx ry rz
    limits (-20.0 45.0)
           (-30.0 30.0)
           (-30.0 30.0)
  end
  begin
     id 17 
     name lclavicle
     direction 0.873442 0.479511 0.0846686  
     length 3.41193  
     axis 0 0 0   XYZ
    dof ry rz
    limits (-20.0 10.0)
           (0.0 20.0)
  end
  begin
     id 18 
     name lhumerus
     direction 1 -4.4897e-011 -5.62117e-018   
     length 5.59864   
     axis 180 -30 -90   XYZ
    dof rx ry rz
    limits (-60.0 90.0)
           (-90.0 90.0)
           (-90.0 90.0)
  end
  begin
     id 19
     name lradius
     direction 1 -4.48966e-011 -6.26295e-027   
     length 3.59542   
     axis 180 -30 -90   XYZ
    dof rx
    limits (-10.0 170.0)
  end
  begin
     id 20
     name lwrist
     direction 1 -4.48947e-011 -1.74096e-026   
     length 1.79771   
     axis 1.04567e-014 90 90   XYZ
    dof ry
    limits (-180.0 0.0)
 end
  begin
     id 21 
     name lhand
     direction 1 -4.49085e-011 -3.48469e-026   
     length 0.572014   
     axis 2.22196e-014 90 90   XYZ
    dof rx rz
    limits (-90.0 90.0)
           (-45.0 45.0)
  end
  begin
     id 22 
     name lfingers
     direction 1 -4.48884e-011 -6.96135e-026   
     length 0.461173   
     axis 4.44383e-014 90 90   XYZ
    dof rx
    limits (0.0 90.0)
  end
  begin
     id 23
     name lthumb
     direction 0.707107 -6.34976e-011 0.707107   
     length 0.662154   
     axis -90 45 -5.4397e-014   XYZ
    dof rx rz
    limits (-45.0 45.0)
           (-45.0 45.0)
  end
  begin
     id 24 
     name rclavicle
     direction -0.890242 0.443271 0.104786   
     length 3.46753  
     axis 0 0 0   XYZ 
    dof ry rz
    limits (-10.0 20.0)
           (-20.0 0.0)
  end
  begin
     id 25 
     name rhumerus
     direction -1 -4.48963e-011 -5.41723e-018  
     length 5.8094   
     axis 180 30 90   XYZ
    dof rx ry rz
    limits (-90.0 60.0)
           (-90.0 90.0)
           (-90.0 90.0)
  end
  begin
     id 26 
     name rradius
     direction -1 -4.48958e-011 -6.51059e-027   
     length 3.66953   
     axis 180 30 90   XYZ
    dof rx
    limits (-10.0 170.0)
  end
  begin
     id 27 
     name rwrist
     direction -1 -4.48975e-011 -1.74124e-026   
     length 1.83476   
     axis 1.04567e-014 -90 -90   XYZ
    dof ry
    limits (-180.0 0.0)
  end
  begin
     id 28
     name rhand
     direction -1 -4.49013e-011 -3.48326e-026   
     length 0.57843   
     axis 2.22196e-014 -90 -90   XYZ
    dof rx rz
    limits (-90.0 90.0)
           (-45.0 45.0)
  end
  begin
     id 29
     name rfingers
     direction -1 -4.49023e-011 -6.9669e-026   
     length 0.466345   
     axis 4.44383e-014 -90 -90   XYZ
    dof rx
    limits (0.0 90.0)
  end
  begin
     id 30
     name rthumb
     direction -0.707107 -6.34926e-011 0.707107   
     length 0.669581   
     axis -90 -45 5.4397e-014   XYZ
    dof rx rz
    limits (-45.0 45.0)
           (-45.0 45.0)
  end
:hierarchy
  begin
    root lhipjoint rhipjoint lowerback
    lhipjoint lfemur
    lfemur ltibia
    ltibia lfoot
    lfoot ltoes
    rhipjoint rfemur
    rfemur rtibia
    rtibia rfoot
    rfoot rtoes
    lowerback upperback
    upperback thorax
    thorax lowerneck lclavicle rclavicle
    lowerneck upperneck
    upperneck head
    lclavicle lhumerus
    lhumerus lradius
    lradius lwrist
    lwrist lhand lthumb
    lhand lfingers
    rclavicle rhumerus
    rhumerus rradius
    rradius rwrist
    rwrist rhand rthumb
    rhand rfingers
  end

#!OML:ASF H:\SkateBoarding\Project 1\Capture day 1\Session 1\Skater.ASF
:FULLY-SPECIFIED
:DEGREES
115
root 7.06838 18.1729 -29.1246 11.3636 9.89139 -0.970521
lowerback 13.0992 4.03149 -0.172072
upperback 4.03977 5.28263 -0.399347
thorax -3.04871 2.61952 -1.13276
lowerneck -21.9159 -4.66927 -3.58535
upperneck 33.2024 -8.51394 8.35688
head 16.1077 -2.72841 2.52413
rclavicle 3.10104e-014 -7.95139e-016
rhumerus -10.7664 -0.19163 -79.1946
rradius 30.7669
rwrist 14.0873
rhand -40.1738 2.31172
rfingers 7.12502
rthumb -13.1353 -27.2546
lclavicle 3.10104e-014 -7.95139e-016
lhumerus -37.2176 -2.5487 85.2094
lradius 31.7698
lwrist 16.3882
lhand -13.9293 14.0467
lfingers 7.12502
lthumb 12.1972 43.6711
rfemur -1.71905 11.3989 24.7645
rtibia 19.6616
rfoot -36.2454 5.82367
rtoes -15.9239
lfemur -43.1216 -10.9049 -13.3955
ltibia 33.1614
lfoot -27.2924 -0.0855518
ltoes -12.3128
116
root 7.09594 18.163 -28.9926 11.6416 9.48518 -0.932232
lowerback 13.0146 4.19112 -0.432639
upperback 4.10606 5.45801 -0.438323
thorax -2.95121 2.70677 -1.04583
lowerneck -21.9676 -4.7678 -3.62367
upperneck 33.2257 -8.67577 8.43061
head 16.1543 -2.7872 2.52965
rclavicle -2.94201e-014 2.10712e-014
rhumerus -10.1729 0.0403752 -79.0845
rradius 30.4732
rwrist 14.3686
rhand -39.9486 2.15877
rfingers 7.12502
rthumb -12.9182 -27.4214
lclavicle -2.94201e-014 2.10712e-014
lhumerus -37.1848 -2.47113 85.0458
lradius 31.8161
lwrist 16.3715
lhand -13.8 13.8983
lfingers 7.12502
lthumb 12.3219 43.5152
rfemur -1.10868 11.5725 24.6312
rtibia 18.7713
rfoot -35.6999 6.13788
rtoes -15.4139
lfemur -43.3023 -10.5271 -13.5609
ltibia 33.7869
lfoot -27.3243 0.0204626
ltoes -12.2517
117
root 7.12445 18.1536 -28.8581 11.9153 9.09227 -0.869644
lowerback 12.9187 4.3565 -0.747384
upperback 4.18834 5.63586 -0.459642
thorax -2.83899 2.79486 -0.90918
lowerneck -22.0161 -4.87307 -3.67364
upperneck 33.2213 -8.83918 8.50131
head 16.1872 -2.84936 2.53445
rclavicle 8.8161e-014 -4.03533e-014
rhumerus -9.57153 0.224936 -78.941
rradius 30.1549
rwrist 14.6519
rhand -39.7688 2.06005
rfingers 7.12502
rthumb -12.7449 -27.531
lclavicle 8.8161e-014 -4.03533e-014
lhumerus -37.1239 -2.37547 84.9156
lradius 31.8519
lwrist 16.3447
lhand -13.8467 14.562
lfingers 7.12502
lthumb 12.2769 44.1816
rfemur -0.463243 11.7155 24.4672
rtibia 17.8462
rfoot -35.0864 6.49332
rtoes -14.8231
lfemur -43.4479 -10.1728 -13.7681
ltibia 34.4276
lfoot -27.3289 0.11703
ltoes -12.167
118
root 7.15384 18.1446 -28.722 12.1891 8.72077 -0.77946
lowerback 12.8268 4.52362 -1.10475
upperback 4.28062 5.81208 -0.470962
thorax -2.72533 2.88146 -0.738143
lowerneck -22.0623 -4.98511 -3.72888
upperneck 33.1896 -9.00806 8.57267
head 16.207 -2.91511 2.53823
rclavicle 4.14466e-014 -1.05356e-014
rhumerus -8.95815 0.344286 -78.7731
rradius 29.8061
rwrist 14.9496
rhand -39.6414 1.99917
rfingers 7.12502
rthumb -12.6221 -27.5995
lclavicle 4.14466e-014 -1.05356e-014
lhumerus -37.0377 -2.281 84.8175
lradius 31.8553
lwrist 16.3472
lhand -13.9562 15.4293
lfingers 7.12502
lthumb 12.1713 45.0552
rfemur 0.177888 11.7988 24.2639
rtibia 16.9404
rfoot -34.3842 6.89514
rtoes -14.1367
lfemur -43.568 -9.86132 -14.0084
ltibia 35.059
lfoot -27.304 0.188292
ltoes -11.9512
119
root 7.18415 18.1366 -28.5849 12.4641 8.36255 -0.65928
lowerback 12.7373 4.69437 -1.51231
upperback 4.38502 5.98858 -0.468088
thorax -2.60873 2.96728 -0.524455
lowerneck -22.1027 -5.10334 -3.79441
upperneck 33.1282 -9.17696 8.63897
head 16.2113 -2.98389 2.54043
rclavicle 8.05078e-014 -2.3059e-014
rhumerus -8.33286 0.40212 -78.5758
rradius 29.4323
rwrist 15.27
rhand -39.5224 1.95987
rfingers 7.12502
rthumb -12.5074 -27.6458
lclavicle 8.05078e-014 -2.3059e-014
lhumerus -36.9242 -2.18073 84.7594
lradius 31.8317
lwrist 16.3636
lhand -14.1037 16.5853
lfingers 7.12502
lthumb 12.0291 46.2196
rfemur 0.761154 11.7937 24.008
rtibia 16.1439
rfoot -33.5916 7.37963
rtoes -13.3889
lfemur -43.6601 -9.59903 -14.2755
ltibia 35.6594
lfoot -27.2658 0.205304
ltoes -11.6641
120
root 7.21522 18.1297 -28.4473 12.7177 8.02935 -0.503972
lowerback 12.7132 4.8625 -1.96136
upperback 4.4897 6.15608 -0.456125
thorax -2.53444 3.04751 -0.283191
lowerneck -22.1347 -5.2247 -3.86394
upperneck 33.0509 -9.34391 8.69692
head 16.2052 -3.05426 2.53949
rclavicle -3.95581e-014 4.77083e-015
rhumerus -7.71656 0.398502 -78.3615
rradius 29.0353
rwrist 15.6291
rhand -39.4139 1.91663
rfingers 7.12502
rthumb -12.4027 -27.6954
lclavicle -3.95581e-014 4.77083e-015
lhumerus -36.803 -2.08789 84.7372
lradius 31.7786
lwrist 16.3976
lhand -14.2876 17.931
lfingers 7.12502
lthumb 11.8518 47.5756
rfemur 1.24746 11.6682 23.6968
rtibia 15.5743
rfoot -32.6871 7.995
rtoes -12.5331
lfemur -43.6961 -9.41754 -14.5656
ltibia 36.2055
lfoot -27.2249 0.160955
ltoes -11.307
121
root 7.24711 18.1244 -28.3103 12.9669 7.70562 -0.319491
lowerback 12.7394 5.03154 -2.43529
upperback 4.59245 6.32045 -0.445136
thorax -2.49381 3.12536 -0.0339589
lowerneck -22.161 -5.34741 -3.92453
upperneck 32.9579 -9.51023 8.74347
head 16.1886 -3.12546 2.53154
rclavicle -4.55217e-014 -1.23246e-014
rhumerus -7.10471 0.321414 -78.1438
rradius 28.6183
rwrist 16.0454
rhand -39.3157 1.85298
rfingers 7.12502
rthumb -12.3081 -27.7648
lclavicle -4.55217e-014 -1.23246e-014
lhumerus -36.6635 -2.01961 84.7439
lradius 31.6939
lwrist 16.4443
lhand -14.4859 19.2917
lfingers 7.12502
lthumb 11.6606 48.9472
rfemur 1.53253 11.3864 23.3158
rtibia 15.3706
rfoot -31.6496 8.79633
rtoes -11.5945
lfemur -43.6888 -9.27757 -14.8821
ltibia 36.6797
lfoot -27.1701 0.0559827
ltoes -10.8505
122
root 7.27945 18.1221 -28.1745 13.2116 7.39076 -0.108286
lowerback 12.8287 5.19863 -2.92883
upperback 4.69065 6.47694 -0.437539
thorax -2.49557 3.19873 0.216883
lowerneck -22.1879 -5.46759 -3.96939
upperneck 32.856 -9.67153 8.77336
head 16.1653 -3.19522 2.51422
rclavicle 1.11319e-014 1.82882e-014
rhumerus -6.49415 0.180571 -77.9304
rradius 28.1834
rwrist 16.5155
rhand -39.2272 1.77787
rfingers 7.12502
rthumb -12.2228 -27.845
lclavicle 1.11319e-014 1.82882e-014
lhumerus -36.5029 -1.97761 84.7754
lradius 31.583
lwrist 16.4921
lhand -14.6762 20.4741
lfingers 7.12502
lthumb 11.477 50.1399
rfemur 1.52925 10.9335 22.862
rtibia 15.6863
rfoot -30.465 9.84836
rtoes -10.5696
lfemur -43.6288 -9.20046 -15.2104
ltibia 37.0653
lfoot -27.1373 -0.0806072
ltoes -10.3655
123
root 7.31219 18.1231 -28.0406 13.4468 7.0859 0.118578
lowerback 12.9851 5.36163 -3.42727
upperback 4.78972 6.62339 -0.430722
thorax -2.53452 3.26679 0.463941
lowerneck -22.225 -5.58299 -3.99447
upperneck 32.7487 -9.82474 8.78226
head 16.138 -3.26202 2.48561
rclavicle 6.52014e-014 -1.03368e-014
rhumerus -5.87061 -0.0118491 -77.722
rradius 27.7312
rwrist 17.031
rhand -39.049 1.6896
rfingers 7.12502
rthumb -12.0509 -27.9434
lclavicle 6.52014e-014 -1.03368e-014
lhumerus -36.313 -1.96941 84.8333
lradius 31.4565
lwrist 16.5343
lhand -14.8392 21.3517
lfingers 7.12502
lthumb 11.3198 51.0262
rfemur 1.17417 10.2872 22.3424
rtibia 16.6402
rfoot -29.0281 11.2738
rtoes -9.2288
lfemur -43.5056 -9.14272 -15.5586
ltibia 37.3516
lfoot -27.1076 -0.250167
ltoes -9.89005
124
root 7.34533 18.128 -27.909 13.6662 6.79553 0.353377
lowerback 13.2151 5.51537 -3.91762
upperback 4.89375 6.75321 -0.422667
thorax -2.60805 3.32649 0.702695
lowerneck -22.2812 -5.68889 -3.99982
upperneck 32.6415 -9.96299 8.76919
head 16.1107 -3.32279 2.44684
rclavicle -1.74931e-014 -2.14687e-014
rhumerus -5.22765 -0.242027 -77.5238
rradius 27.2691
rwrist 17.573
rhand -38.9614 1.64195
rfingers 7.12502
rthumb -11.9664 -27.996
lclavicle -1.74931e-014 -2.14687e-014
lhumerus -36.0954 -2.00493 84.9193
lradius 31.3303
lwrist 16.5648
lhand -14.9758 21.9405
lfingers 7.12502
lthumb 11.1881 51.6222
rfemur 0.443637 9.45046 21.7657
rtibia 18.2781
rfoot -27.228 13.0783
rtoes -7.44874
lfemur -43.3022 -9.10755 -15.9156
ltibia 37.526
lfoot -27.1033 -0.456955
ltoes -9.46172
125
root 7.37892 18.1363 -27.7802 13.8816 6.53521 0.586003
lowerback 13.5022 5.65451 -4.38032
upperback 5.0045 6.86185 -0.410966
thorax -2.7027 3.37574 0.927454
lowerneck -22.3612 -5.78685 -3.98454
upperneck 32.5338 -10.0895 8.73557
head 16.0845 -3.37841 2.39763
rclavicle 7.7526e-015 1.23246e-014
rhumerus -4.55888 -0.50853 -77.3343
rradius 26.8048
rwrist 18.1242
rhand -38.7716 1.60604
rfingers 7.12502
rthumb -11.7834 -28.0425
lclavicle 7.7526e-015 1.23246e-014
lhumerus -35.8419 -2.09486 85.0371
lradius 31.2119
lwrist 16.5727
lhand -15.0743 22.2905
lfingers 7.12502
lthumb 11.093 51.9773
rfemur -0.670611 8.42285 21.1484
rtibia 20.589
rfoot -24.9097 15.1956
rtoes -5.1032
lfemur -43.0368 -9.10526 -16.2647
ltibia 37.5832
lfoot -27.1402 -0.694393
ltoes -9.06001
